<svg width="32" height="32" viewBox="0 0 32 32" fill="none" xmlns="http://www.w3.org/2000/svg">
<style>@media (prefers-color-scheme: dark) { path { fill: white; }  }</style>
<path d="M27.9313 5.00874C27.917 4.7641 27.8134 4.53322 27.6401 4.35993C27.4668 4.18665 27.2359 4.08303 26.9913 4.06874C17.475 3.50999 9.85252 6.37499 6.60252 11.75C5.47598 13.5886 4.92084 15.7204 5.00752 17.875C5.0641 19.2528 5.34443 20.6122 5.83752 21.9C5.86649 21.9792 5.91505 22.0499 5.97868 22.1053C6.0423 22.1607 6.11892 22.1992 6.2014 22.217C6.28387 22.2348 6.36952 22.2315 6.45037 22.2074C6.53122 22.1832 6.60463 22.1389 6.66377 22.0787L17.2888 11.2912C17.3817 11.1983 17.492 11.1246 17.6134 11.0743C17.7348 11.0241 17.8649 10.9982 17.9963 10.9982C18.1277 10.9982 18.2578 11.0241 18.3792 11.0743C18.5006 11.1246 18.6109 11.1983 18.7038 11.2912C18.7967 11.3842 18.8704 11.4945 18.9207 11.6158C18.9709 11.7372 18.9968 11.8673 18.9968 11.9987C18.9968 12.1301 18.9709 12.2602 18.9207 12.3816C18.8704 12.503 18.7967 12.6133 18.7038 12.7062L7.09252 24.4925L5.31877 26.2662C5.1343 26.4458 5.02417 26.6883 5.01028 26.9453C4.99638 27.2024 5.07974 27.4553 5.24377 27.6537C5.3336 27.7578 5.44392 27.8422 5.56783 27.9017C5.69174 27.9611 5.82658 27.9945 5.96394 27.9995C6.10129 28.0045 6.23821 27.9812 6.36615 27.931C6.49409 27.8807 6.6103 27.8047 6.70752 27.7075L8.80627 25.6087C10.5738 26.4637 12.3575 26.93 14.1263 26.9925C14.2654 26.9975 14.4042 27 14.5425 27C16.5568 27.0051 18.5328 26.4503 20.25 25.3975C25.625 22.1475 28.4913 14.5262 27.9313 5.00874Z" fill="black"/>
</svg>
